<svg xmlns="http://www.w3.org/2000/svg" viewBox="0 0 42.02 32"><defs><style>.cls-1{fill:#79cc46;}.cls-2{fill:#08ab4e;}.cls-3{fill:#0a9944;}.cls-4{fill:#fff;}</style></defs><g id="Слой_2" data-name="Слой 2"><g id="Слой_1-2" data-name="Слой 1"><path class="cls-1" d="M38.12.19A5.29,5.29,0,0,0,31.63,3.9v0c-.46,1.67-.9,3.35-1.36,5-.08.29-.15.57-.24.85s-.15.56-.23.84q-.35,1.23-.72,2.43c-.1.35-.21.7-.31,1l-.27.84c-.09.29-.18.56-.27.84l-.12.34h0c-.14.43-.29.85-.44,1.27l-.09.24c-.21-.36-.43-.74-.69-1.13-.15-.23-.32-.47-.5-.71L26,15.29l-.16-.21c-.17-.2-.35-.4-.55-.61a11.38,11.38,0,0,0-.93-.86,11.21,11.21,0,0,0-1.08-.76l-.18-.1a6.49,6.49,0,0,0-.59-.3q-.41-.18-.84-.33l-.21-.07a7.69,7.69,0,0,0-1.91-.3,7.56,7.56,0,0,0-1.9.18,7.73,7.73,0,0,0-1.15.35c-.28.12-.54.24-.79.37a7.66,7.66,0,0,0-.74.45l-.35.26a8,8,0,0,0-1,.87,9.28,9.28,0,0,0-.74.84,13.88,13.88,0,0,0-1,1.56l-.25.46c-.14.27-.26.53-.37.78s-.24.54-.34.8-.19.47-.27.7c-.25.65-.46,1.27-.65,1.86l-.15-.33q-.28-.62-.54-1.26c-.22-.55-.43-1.12-.62-1.69-.1-.27-.19-.54-.28-.81l-.15-.46c0-.12-.07-.24-.11-.37-.34-1.12-.66-2.25-1-3.4-.06-.25-.13-.49-.19-.73a.5.5,0,0,1,0-.12c-.08-.27-.14-.55-.21-.83C6.49,10,6.23,8.85,6,7.65l0-.1L5.79,6.8,5.6,6,5.43,5.2c-.16-.78-.34-1.57-.52-2.35v0A2.48,2.48,0,0,0,0,3.41c0,.83,0,1.66.07,2.5s.09,1.67.17,2.5c.15,1.66.36,3.33.61,5s.58,3.34,1,5a48.06,48.06,0,0,0,1.45,5.08c.31.86.65,1.72,1.06,2.61A14.94,14.94,0,0,0,6,28.93a7.92,7.92,0,0,0,.7.78,6.73,6.73,0,0,0,1,.85,5.73,5.73,0,0,0,.75.42,4.85,4.85,0,0,0,1,.36,4.06,4.06,0,0,0,.64.11,4.07,4.07,0,0,0,.69,0l.63-.06a3.75,3.75,0,0,0,.6-.13,5.55,5.55,0,0,0,1.81-.87,6.79,6.79,0,0,0,1.06-.91,9.53,9.53,0,0,0,.71-.8c.2-.25.38-.48.54-.71.33-.46.6-.87.86-1.27l.73-1.15c.37-.6.73-1.16,1.07-1.67.2.41.41.86.65,1.34l.13.27A23.82,23.82,0,0,0,21.06,28a12.32,12.32,0,0,0,1.5,1.78,9.07,9.07,0,0,0,1.28,1,7.82,7.82,0,0,0,1.88.88,5.12,5.12,0,0,0,.56.15l.59.11a5.9,5.9,0,0,0,.59.06h.63a6.46,6.46,0,0,0,1.33-.17,7.38,7.38,0,0,0,1.15-.35,8.91,8.91,0,0,0,1.71-.95,10.58,10.58,0,0,0,1.12-1,12.58,12.58,0,0,0,1.4-1.7c.36-.52.65-1,.92-1.49A27.63,27.63,0,0,0,37,23.67c.38-.88.71-1.73,1-2.57.6-1.69,1.11-3.34,1.58-5,.91-3.29,1.68-6.55,2.31-9.82A5.3,5.3,0,0,0,38.12.19Z"/><path class="cls-2" d="M6,7.65,3.22,8H3.1a.85.85,0,0,1-.85-.75A.87.87,0,0,1,3,6.3L5.6,6l.19.84L6,7.55Z"/><path class="cls-2" d="M7.2,12.91l-2.69.46H4.36a.87.87,0,0,1-.14-1.72l2.56-.43c.07.28.13.56.21.83a.5.5,0,0,0,0,.12C7.07,12.42,7.14,12.66,7.2,12.91Z"/><path class="cls-2" d="M8.69,18,7,18.45a1,1,0,0,1-.24,0,.87.87,0,0,1-.83-.61.88.88,0,0,1,.59-1.08l1.63-.48c0,.13.08.25.11.37l.15.46C8.5,17.41,8.59,17.68,8.69,18Z"/><path class="cls-2" d="M14.55,19.28a.87.87,0,0,1-.79.53.8.8,0,0,1-.34-.07l-2.5-1.07c.1-.26.21-.53.34-.8s.23-.51.37-.78l2.47,1.06A.86.86,0,0,1,14.55,19.28Z"/><path class="cls-2" d="M17.21,15.28a.84.84,0,0,1-.42.12A.86.86,0,0,1,16,15L15,13.1a7.66,7.66,0,0,1,.74-.45c.25-.13.51-.25.79-.37l1,1.83A.86.86,0,0,1,17.21,15.28Z"/><path class="cls-2" d="M23.3,12.85,21.71,15a.87.87,0,0,1-.7.36.92.92,0,0,1-.51-.17A.87.87,0,0,1,20.31,14l1.38-1.9q.43.15.84.33a6.49,6.49,0,0,1,.59.3Z"/><path class="cls-2" d="M26.89,16.48,24.1,18.93a.83.83,0,0,1-.57.22A.86.86,0,0,1,23,17.64l2.9-2.56.16.21.37.48C26.57,16,26.74,16.25,26.89,16.48Z"/><path class="cls-2" d="M31.79,16.71a.85.85,0,0,1-.76.45.86.86,0,0,1-.41-.1l-2.39-1.3c.09-.28.18-.55.27-.84l.27-.84,2.67,1.46A.86.86,0,0,1,31.79,16.71Z"/><path class="cls-2" d="M33.26,11.31a.87.87,0,0,1-.78.49.83.83,0,0,1-.37-.08L29.8,10.61c.08-.28.16-.56.23-.84s.16-.56.24-.85l2.59,1.24A.86.86,0,0,1,33.26,11.31Z"/><path class="cls-3" d="M10,21.23l-.86,2.88.17-4.47q.26.64.54,1.26Z"/><path class="cls-3" d="M20.39,20.68l-.77,4.84-.13-.27c-.24-.48-.45-.93-.65-1.34Z"/><path class="cls-3" d="M29.28,21.39l-1.7-3.78.09-.24c.15-.42.3-.84.44-1.27Z"/><circle class="cls-4" cx="34.53" cy="4.63" r="1.44"/><circle cx="33.75" cy="4.63" r="0.66"/><circle class="cls-4" cx="38.87" cy="5.29" r="1.44"/><circle cx="38.09" cy="5.29" r="0.66"/><path class="cls-3" d="M36.21,9.36a2.23,2.23,0,0,1-.61-.08,2.51,2.51,0,0,1-1.5-1.15.37.37,0,0,1,.64-.38,1.78,1.78,0,0,0,1,.81,1.86,1.86,0,0,0,1.51-.31.38.38,0,0,1,.52.07.36.36,0,0,1-.07.52A2.66,2.66,0,0,1,36.21,9.36Z"/></g></g></svg>